<?xml version="1.0" standalone="no"?>
<!DOCTYPE svg PUBLIC "-//W3C//DTD SVG 20010904//EN"
 "http://www.w3.org/TR/2001/REC-SVG-20010904/DTD/svg10.dtd">
<svg version="1.0" xmlns="http://www.w3.org/2000/svg"
 width="300.000000pt" height="300.000000pt" viewBox="0 0 300.000000 300.000000"
 preserveAspectRatio="xMidYMid meet">
<metadata>
Created by potrace 1.10, written by Peter Selinger 2001-2011
</metadata>
<g transform="translate(0.000000,300.000000) scale(0.100000,-0.100000)"
fill="#000000" stroke="none">
<path d="M1630 2553 c-130 -67 -1008 -597 -1032 -624 -26 -28 -28 -35 -28
-120 0 -59 5 -100 15 -118 10 -21 76 -65 247 -166 128 -75 248 -139 266 -142
l32 -6 0 -344 c0 -211 4 -352 10 -363 8 -15 258 -172 348 -219 28 -15 24 -17
207 114 120 86 156 117 182 159 l33 51 0 512 0 512 28 19 c15 10 85 52 157 93
179 101 175 96 175 234 0 109 -1 112 -27 137 -41 37 -483 288 -509 288 -12 0
-29 2 -36 5 -8 3 -39 -7 -68 -22z m70 -10 c0 -3 -6 -14 -14 -22 -7 -9 -139
-212 -292 -451 l-279 -435 -5 -112 -5 -112 -247 146 -248 146 0 102 c0 96 1
102 23 112 32 15 997 592 1027 614 26 19 40 24 40 12z m332 -176 l197 -112 1
-111 0 -111 -180 -103 -180 -103 2 -543 c2 -299 0 -540 -3 -536 -5 7 -317 756
-338 815 l-11 27 -82 -44 c-191 -101 -279 -146 -283 -146 -3 0 -5 47 -5 105
l0 105 291 465 291 464 52 -30 c28 -16 140 -80 248 -142z m-528 -835 c3 -4 8
-237 11 -517 4 -281 7 -511 9 -512 1 -1 70 46 153 105 l151 108 -155 373 c-85
205 -153 377 -151 383 2 6 76 -163 165 -376 l161 -386 -169 -120 -169 -119
-175 105 -175 105 0 347 0 347 158 81 c160 83 177 90 186 76z m170 -523 c58
-140 106 -263 106 -272 0 -16 -43 -51 -159 -131 -41 -28 -56 -34 -63 -24 -11
18 -10 704 1 693 5 -6 57 -125 115 -266z"/>
<path d="M1330 1445 l-155 -81 -3 -336 -2 -335 161 -97 c89 -53 163 -95 165
-93 2 2 0 233 -4 513 l-7 510 -155 -81z m121 13 c0 -2 3 -202 6 -445 5 -362 3
-443 -7 -443 -18 0 -221 119 -237 139 -18 21 -18 610 0 633 20 27 233 130 238
116z"/>
</g>
</svg>
