<svg width="1170" height="411" viewBox="0 0 1170 411" fill="none" xmlns="http://www.w3.org/2000/svg">
    <!-- Background -->
    <rect x="100" width="970" height="393" rx="20" fill="white" fill-opacity="0.03"/>
    <rect x="100.5" y="0.5" width="969" height="392" rx="19.5" stroke="white" stroke-opacity="0.08"/>
    
    <!-- Top Bar -->
    <rect x="110" y="10" width="950" height="50" rx="8" fill="white" fill-opacity="0.04"/>
    <circle cx="134" cy="35" r="4" fill="white" fill-opacity="0.2"/>
    <circle cx="148" cy="35" r="4" fill="white" fill-opacity="0.2"/>
    <circle cx="162" cy="35" r="4" fill="white" fill-opacity="0.2"/>
    
    <!-- Stats Cards -->
    <g transform="translate(120, 70)">
        <rect width="220" height="80" rx="8" fill="white" fill-opacity="0.03"/>
        <text x="20" y="30" fill="white" fill-opacity="0.4" font-family="Arial" font-size="14">Users</text>
        <text x="20" y="60" fill="white" fill-opacity="0.7" font-family="Arial" font-size="24">45,872</text>
        <path d="M180 30 L190 20 L200 35 L210 25 L220 30" stroke="white" stroke-opacity="0.2" stroke-width="1"/>
    </g>
    
    <g transform="translate(360, 70)">
        <rect width="220" height="80" rx="8" fill="white" fill-opacity="0.03"/>
        <text x="20" y="30" fill="white" fill-opacity="0.4" font-family="Arial" font-size="14">Sessions</text>
        <text x="20" y="60" fill="white" fill-opacity="0.7" font-family="Arial" font-size="24">68,147</text>
        <path d="M180 35 L190 25 L200 30 L210 20 L220 15" stroke="white" stroke-opacity="0.2" stroke-width="1"/>
    </g>
    
    <g transform="translate(600, 70)">
        <rect width="220" height="80" rx="8" fill="white" fill-opacity="0.03"/>
        <text x="20" y="30" fill="white" fill-opacity="0.4" font-family="Arial" font-size="14">Bounce Rate</text>
        <text x="20" y="60" fill="white" fill-opacity="0.7" font-family="Arial" font-size="24">32.4%</text>
        <path d="M180 30 L190 35 L200 25 L210 40 L220 30" stroke="white" stroke-opacity="0.2" stroke-width="1"/>
    </g>
    
    <!-- Main Chart -->
    <g transform="translate(120, 170)">
        <rect width="700" height="200" rx="8" fill="white" fill-opacity="0.03"/>
        
        <!-- Grid Lines -->
        <line x1="0" y1="40" x2="700" y2="40" stroke="white" stroke-opacity="0.05" stroke-dasharray="4"/>
        <line x1="0" y1="80" x2="700" y2="80" stroke="white" stroke-opacity="0.05" stroke-dasharray="4"/>
        <line x1="0" y1="120" x2="700" y2="120" stroke="white" stroke-opacity="0.05" stroke-dasharray="4"/>
        <line x1="0" y1="160" x2="700" y2="160" stroke="white" stroke-opacity="0.05" stroke-dasharray="4"/>
        
        <!-- Chart Lines -->
        <path d="M50 150 L150 100 L250 120 L350 80 L450 90 L550 60 L650 40" 
              stroke="white" stroke-opacity="0.2" stroke-width="1.5" fill="none"/>
        <path d="M50 140 L150 130 L250 110 L350 120 L450 100 L550 90 L650 80" 
              stroke="white" stroke-opacity="0.1" stroke-width="1.5" fill="none"/>
              
        <!-- Data Points -->
        <circle cx="50" cy="150" r="3" fill="white" fill-opacity="0.2"/>
        <circle cx="150" cy="100" r="3" fill="white" fill-opacity="0.2"/>
        <circle cx="250" cy="120" r="3" fill="white" fill-opacity="0.2"/>
        <circle cx="350" cy="80" r="3" fill="white" fill-opacity="0.2"/>
        <circle cx="450" cy="90" r="3" fill="white" fill-opacity="0.2"/>
        <circle cx="550" cy="60" r="3" fill="white" fill-opacity="0.2"/>
        <circle cx="650" cy="40" r="3" fill="white" fill-opacity="0.2"/>
        
        <circle cx="50" cy="140" r="3" fill="white" fill-opacity="0.1"/>
        <circle cx="150" cy="130" r="3" fill="white" fill-opacity="0.1"/>
        <circle cx="250" cy="110" r="3" fill="white" fill-opacity="0.1"/>
        <circle cx="350" cy="120" r="3" fill="white" fill-opacity="0.1"/>
        <circle cx="450" cy="100" r="3" fill="white" fill-opacity="0.1"/>
        <circle cx="550" cy="90" r="3" fill="white" fill-opacity="0.1"/>
        <circle cx="650" cy="80" r="3" fill="white" fill-opacity="0.1"/>
    </g>
    
    <!-- Side Stats -->
    <g transform="translate(840, 170)">
        <rect width="200" height="200" rx="8" fill="white" fill-opacity="0.03"/>
        <text x="20" y="30" fill="white" fill-opacity="0.4" font-family="Arial" font-size="14">Top Sources</text>
        
        <!-- Source Bars -->
        <rect x="20" y="50" width="140" height="16" rx="4" fill="white" fill-opacity="0.1"/>
        <rect x="20" y="80" width="110" height="16" rx="4" fill="white" fill-opacity="0.08"/>
        <rect x="20" y="110" width="90" height="16" rx="4" fill="white" fill-opacity="0.06"/>
        <rect x="20" y="140" width="70" height="16" rx="4" fill="white" fill-opacity="0.04"/>
        
        <text x="170" y="62" fill="white" fill-opacity="0.4" font-family="Arial" font-size="12">45%</text>
        <text x="170" y="92" fill="white" fill-opacity="0.4" font-family="Arial" font-size="12">35%</text>
        <text x="170" y="122" fill="white" fill-opacity="0.4" font-family="Arial" font-size="12">28%</text>
        <text x="170" y="152" fill="white" fill-opacity="0.4" font-family="Arial" font-size="12">22%</text>
    </g>
</svg>