<svg xmlns="http://www.w3.org/2000/svg" width="500" height="120" viewBox="0 0 500 120">
  <!-- Logo Group -->
  <g transform="translate(10,100) scale(0.04,-0.04)">
    <!-- White outer part -->
    <path fill="white" d="M1630 2553 c-130 -67 -1008 -597 -1032 -624 -26 -28 -28 -35 -28
    -120 0 -59 5 -100 15 -118 10 -21 76 -65 247 -166 128 -75 248 -139 266 -142
    l32 -6 0 -344 c0 -211 4 -352 10 -363 8 -15 258 -172 348 -219 28 -15 24 -17
    207 114 120 86 156 117 182 159 l33 51 0 512 0 512 28 19 c15 10 85 52 157 93
    179 101 175 96 175 234 0 109 -1 112 -27 137 -41 37 -483 288 -509 288 -12 0
    -29 2 -36 5 -8 3 -39 -7 -68 -22z"/>
    
    <!-- Black inner part -->
    <path fill="black" d="M1330 1445 l-155 -81 -3 -336 -2 -335 161 -97 c89 -53 163 -95 165
    -93 2 2 0 233 -4 513 l-7 510 -155 -81z"/>
  </g>

<!-- Text with modern tech/analytics style font -->
  <style>
    @import url('https://fonts.googleapis.com/css2?family=Orbitron:wght@600&amp;display=swap');
  </style>
  <!-- Fallback to a similar font if Orbitron doesn't load -->
  <text x="160" y="70" font-family="Orbitron, 'Segoe UI', Arial" font-weight="600" font-size="50" letter-spacing="2" fill="white">
    Track
    <tspan dx="15" font-weight="600">It</tspan>
  </text>
</svg>