<?xml version="1.0" encoding="UTF-8"?>
<svg version="1.1" xmlns="http://www.w3.org/2000/svg" width="1578" height="478">
<path d="M0 0 C1.19978885 23.37601706 1.27965185 46.76613862 1.47252274 70.16683197 C1.55590321 80.09175973 1.65064319 90.0165884 1.74609375 99.94140625 C1.76144826 101.55181038 1.76144826 101.55181038 1.77711296 103.19474792 C1.93351484 119.4247962 2.18038701 135.64856745 2.5625 151.875 C3.21164644 179.58027166 3.09638503 207.28897478 3 235 C-7.48988754 229.83642963 -7.48988754 229.83642963 -12.3203125 226.8984375 C-13.25238525 226.33495605 -14.18445801 225.77147461 -15.14477539 225.19091797 C-16.12824951 224.59166504 -17.11172363 223.99241211 -18.125 223.375 C-20.31330545 222.05126199 -22.50213525 220.72839053 -24.69140625 219.40625 C-25.26662521 219.05843475 -25.84184418 218.71061951 -26.43449402 218.3522644 C-34.64028768 213.39583288 -42.89632474 208.52335196 -51.14678955 203.64178467 C-53.13087521 202.46769956 -55.11429213 201.29249096 -57.09765625 200.1171875 C-57.67700424 199.77498169 -58.25635223 199.43277588 -58.85325623 199.0802002 C-59.95192274 198.42888987 -61.0422053 197.7631324 -62.12169838 197.08051395 C-63.9794729 195.94505328 -63.9794729 195.94505328 -66.05488491 195.22391415 C-68.60720029 194.09720561 -70.14242425 193.10107827 -72 191 C-73.21013788 186.10675129 -73.01129502 181.21074205 -72.90820312 176.20385742 C-72.9059457 174.67604695 -72.90721485 173.14822779 -72.91174316 171.62042236 C-72.91403778 167.47752674 -72.8670224 163.33648567 -72.8111515 159.19402099 C-72.76112514 154.86327388 -72.75644051 150.53248377 -72.74694824 146.20149231 C-72.72208749 138.00245248 -72.65644511 129.80426647 -72.57615232 121.60560256 C-72.48671869 112.27083947 -72.44274371 102.93603549 -72.40258884 93.6009506 C-72.31897799 74.40014973 -72.17827371 55.20014352 -72 36 C-71.07152 35.53747833 -71.07152 35.53747833 -70.12428284 35.06561279 C-67.27117865 33.64365832 -64.41878953 32.22027499 -61.56640625 30.796875 C-60.59304321 30.31202637 -59.61968018 29.82717773 -58.61682129 29.32763672 C-52.68789988 26.36751455 -46.79321763 23.35241387 -40.9375 20.25 C-40.10863281 19.81220215 -39.27976563 19.3744043 -38.42578125 18.92333984 C-37.74902344 18.56449707 -37.07226562 18.2056543 -36.375 17.8359375 C-30.07291608 14.50518768 -23.75680967 11.2015928 -17.43240356 7.91345215 C-16.10663944 7.22332225 -14.78166116 6.53168053 -13.45748901 5.83850098 C-11.59734441 4.86502325 -9.7345788 3.89675177 -7.87109375 2.9296875 C-6.78755615 2.36491699 -5.70401855 1.80014648 -4.58764648 1.21826172 C-2 0 -2 0 0 0 Z " fill="#010101" transform="translate(201,237)"/>
<path d="M0 0 C2.7374754 3.4925357 4.40138736 7.03964074 6.01171875 11.1484375 C6.4390052 12.21570572 6.4390052 12.21570572 6.87492371 13.30453491 C7.49252134 14.84800476 8.1075848 16.39249051 8.72039795 17.93786621 C10.38942989 22.1438899 12.07978054 26.34132861 13.76953125 30.5390625 C14.2941394 31.84363403 14.2941394 31.84363403 14.8293457 33.17456055 C18.4163482 42.07332345 22.13418855 50.91503455 25.875 59.75 C27.21809946 62.92550608 28.5604958 66.10130863 29.90234375 69.27734375 C30.23799347 70.07175369 30.57364319 70.86616364 30.91946411 71.68464661 C34.79901266 80.8772329 38.62059026 90.09376694 42.4375 99.3125 C42.78572815 100.15344208 43.1339563 100.99438416 43.49273682 101.86080933 C45.26450793 106.1400175 47.03550919 110.41954374 48.80615234 114.69921875 C52.24472168 123.00917522 55.69011298 131.31630448 59.13504028 139.62362671 C60.21709101 142.23313561 61.29888854 144.84274934 62.38061523 147.45239258 C62.71749863 148.26471848 63.05438202 149.07704437 63.401474 149.91398621 C64.05068825 151.48052292 64.6990425 153.04741639 65.34645081 154.61470032 C66.73877638 157.98179547 68.14104073 161.3426728 69.59179688 164.68505859 C70.05134766 165.75191895 70.51089844 166.8187793 70.984375 167.91796875 C71.57557129 169.26604614 71.57557129 169.26604614 72.17871094 170.64135742 C73 173 73 173 73 177 C71.44970703 178.53295898 71.44970703 178.53295898 69.2578125 179.99609375 C68.44828125 180.5478125 67.63875 181.09953125 66.8046875 181.66796875 C65.92039062 182.25191406 65.03609375 182.83585938 64.125 183.4375 C62.27253278 184.69528314 60.42098785 185.95442558 58.5703125 187.21484375 C57.16313965 188.16593018 57.16313965 188.16593018 55.72753906 189.13623047 C51.7610807 191.84657268 47.87932081 194.66700888 44 197.5 C36.72963754 202.78326507 29.38466818 207.95317457 22.01049805 213.09033203 C16.54915262 216.89936475 11.14471982 220.7695551 5.80078125 224.7421875 C4 226 4 226 3 226 C2.06939115 199.43802574 1.75972327 172.88267865 1.5541687 146.30645752 C1.46319604 134.55318557 1.35945058 122.80002395 1.25390625 111.046875 C1.24366991 109.89865391 1.23343357 108.75043282 1.22288704 107.56741714 C1.03616845 86.8239601 0.74663328 66.08492221 0.3046875 45.34521484 C-0.01083133 30.22893832 -0.04781353 15.11937342 0 0 Z " fill="#010101" transform="translate(206,246)"/>
</svg>
