<?xml version="1.0" encoding="UTF-8"?>
<svg version="1.1" xmlns="http://www.w3.org/2000/svg" width="2000" height="480">
<path d="M0 0 C3.54434427 1.34455698 6.80799193 2.91228344 10.11328125 4.765625 C11.10110596 5.31847168 12.08893066 5.87131836 13.10668945 6.44091797 C14.69356567 7.33641357 14.69356567 7.33641357 16.3125 8.25 C17.42262451 8.87406738 18.53274902 9.49813477 19.67651367 10.14111328 C28.08730665 14.88450279 36.43943099 19.72462736 44.76928711 24.60864258 C52.44156723 29.10391002 60.1498292 33.53396905 67.875 37.9375 C78.39978886 43.93699802 88.90415509 49.97027107 99.38818359 56.04077148 C100.3880127 56.61899658 101.3878418 57.19722168 102.41796875 57.79296875 C103.28188232 58.2933667 104.1457959 58.79376465 105.03588867 59.30932617 C109.00523846 61.57336927 113.00189641 63.78722934 117 66 C117.28956049 73.08021346 117.44363447 80.15441102 117.5065918 87.24023438 C117.54359883 89.64617602 117.61088056 92.05185916 117.7097168 94.45605469 C118.47430465 113.78291421 118.47430465 113.78291421 114.47360229 118.98461914 C110.52822527 122.34332039 106.02618758 124.27221971 101.22219849 126.10870361 C97.94724535 127.4222469 95.08374165 129.1665611 92.05859375 130.984375 C89.85201978 132.24038702 87.64498306 133.49558642 85.4375 134.75 C74.39740526 141.03739545 63.40274984 147.39915936 52.4375 153.81640625 C51.5609375 154.3283252 50.684375 154.84024414 49.78125 155.36767578 C47.7559253 156.5563451 45.73576967 157.75383496 43.71875 158.95654297 C42.6359375 159.59865723 41.553125 160.24077148 40.4375 160.90234375 C39.44621094 161.49394287 38.45492187 162.08554199 37.43359375 162.69506836 C35 164 35 164 33 164 C33.33 246.5 33.66 329 34 414 C33.34 414 32.68 414 32 414 C20.14355402 385.7075883 8.32450102 357.39978046 -3.46777344 329.08056641 C-6.39706056 322.04613171 -9.32765435 315.01224168 -12.25878906 307.97857666 C-14.32662479 303.01647769 -16.39394306 298.05416476 -18.45996094 293.09130859 C-22.36754896 283.70632676 -26.28085513 274.32383401 -30.21173096 264.94857788 C-32.07070926 260.51399284 -33.92682401 256.07821187 -35.78271484 251.64233398 C-36.66930217 249.52552208 -37.55729643 247.40929883 -38.44677734 245.29370117 C-39.67900901 242.36263966 -40.90640352 239.42959537 -42.1328125 236.49609375 C-42.67822189 235.20414345 -42.67822189 235.20414345 -43.23464966 233.88609314 C-45.14326789 229.30635184 -46.74712723 224.80214114 -48 220 C-65.83904274 229.23754128 -65.83904274 229.23754128 -83.65625 238.51708984 C-87.37980469 240.46245992 -91.10520072 242.4042921 -94.83056641 244.34619141 C-97.1278885 245.54493273 -99.42442526 246.74510882 -101.72021484 247.94677734 C-105.0155203 249.6713308 -108.31324948 251.39117783 -111.61236572 253.10842896 C-112.89928143 253.77927571 -114.18539258 254.45166844 -115.47064209 255.1257019 C-117.27123764 256.06970202 -119.07502059 257.00761474 -120.87890625 257.9453125 C-121.9160376 258.48687988 -122.95316895 259.02844727 -124.02172852 259.58642578 C-126.96614415 260.98393103 -129.88889509 262.03831716 -133 263 C-133.02505615 262.00782471 -133.0501123 261.01564941 -133.07592773 259.9934082 C-133.17137866 256.249013 -133.27124044 252.50474533 -133.37231445 248.76049805 C-133.4151509 247.15180481 -133.45685199 245.54308087 -133.49731445 243.93432617 C-133.55628557 241.59805082 -133.61962348 239.2619245 -133.68359375 236.92578125 C-133.70207367 236.15877396 -133.72055359 235.39176666 -133.73959351 234.60151672 C-133.87023368 229.98717871 -134.28291984 225.49181629 -134.84765625 220.90625 C-135.36468895 214.57918035 -133.71047606 211.18872555 -130 206.1875 C-128.87953837 204.55082748 -127.76114622 202.91273681 -126.64453125 201.2734375 C-126.04850098 200.41975586 -125.4524707 199.56607422 -124.83837891 198.68652344 C-121.62856871 193.99585261 -118.67503411 189.14649617 -115.6875 184.3125 C-114.41111532 182.26632851 -113.13376299 180.22076033 -111.85546875 178.17578125 C-111.21786621 177.15436035 -110.58026367 176.13293945 -109.92333984 175.08056641 C-106.78410777 170.05253513 -103.64192849 165.02634659 -100.5 160 C-99.24998536 158.00000915 -97.99998538 156.00000914 -96.75 154 C-74.25 118 -51.75 82 -29.25 46 C-28.6302832 45.00838867 -28.01056641 44.01677734 -27.37207031 42.99511719 C-26.13207038 41.01124667 -24.89183905 39.02752077 -23.65136719 37.04394531 C-20.37137505 31.79837601 -17.09638613 26.54976267 -13.828125 21.296875 C-12.80428711 19.65332031 -12.80428711 19.65332031 -11.75976562 17.9765625 C-10.44969283 15.87331638 -9.1410296 13.76919141 -7.83398438 11.6640625 C-6.94936523 10.24480469 -6.94936523 10.24480469 -6.046875 8.796875 C-5.52963867 7.96510742 -5.01240234 7.13333984 -4.47949219 6.27636719 C-3.07053302 4.10852308 -1.57723002 2.04769386 0 0 Z " fill="#FFFFFF" transform="translate(362,4)"/>
<path d="M0 0 C3.20596321 2.63410801 4.46632146 5.97910268 5.9765625 9.7265625 C6.25868591 10.40904556 6.54080933 11.09152863 6.83148193 11.79469299 C7.76962745 14.06866094 8.69718554 16.3467995 9.625 18.625 C10.29042128 20.24290599 10.95661561 21.86049424 11.62353516 23.4777832 C13.03440495 26.90157662 14.4414086 30.3269226 15.84570312 33.75341797 C17.94145816 38.86315291 20.05378068 43.96589667 22.171875 49.06640625 C22.5167395 49.8968898 22.861604 50.72737335 23.21691895 51.58302307 C23.9170257 53.26877802 24.61718045 54.95451303 25.31738281 56.64022827 C27.10435801 60.94415927 28.88807959 65.24943786 30.671875 69.5546875 C31.02842163 70.41513168 31.38496826 71.27557587 31.75231934 72.16209412 C33.1960234 75.64616457 34.63963431 79.13027362 36.08325195 82.61437988 C38.59678426 88.68057899 41.11069285 94.746622 43.625 100.8125 C43.97766937 101.6634021 44.33033875 102.5143042 44.69369507 103.39099121 C49.05615508 113.9155057 53.42851784 124.43580875 57.81591797 134.94995117 C59.04997141 137.90763663 60.28207401 140.86612133 61.51220703 143.82543945 C62.11618683 145.27816757 62.72019069 146.73088569 63.32421875 148.18359375 C63.62177063 148.89931046 63.91932251 149.61502716 64.22589111 150.35243225 C66.15439037 154.98530736 68.10046531 159.61046938 70.05610657 164.23194885 C71.39195601 167.39370093 72.71882438 170.55917492 74.0440979 173.72537231 C74.67589963 175.22878329 75.31171782 176.73051336 75.95175171 178.23043823 C76.83238247 180.29527004 77.6989368 182.36548421 78.5625 184.4375 C79.05878906 185.61183594 79.55507813 186.78617188 80.06640625 187.99609375 C80.99918851 190.99738898 81.36139718 192.20555316 80 195 C78.59570312 196.36523438 78.59570312 196.36523438 76.78125 197.59375 C76.10521729 198.06031006 75.42918457 198.52687012 74.73266602 199.00756836 C73.99588623 199.5000708 73.25910645 199.99257324 72.5 200.5 C70.93602343 201.5739647 69.37222618 202.64819057 67.80859375 203.72265625 C67.00663574 204.26809082 66.20467773 204.81352539 65.37841797 205.37548828 C61.74532294 207.856972 58.15374701 210.39600211 54.5625 212.9375 C53.51316284 213.67734131 53.51316284 213.67734131 52.44262695 214.43212891 C47.3296446 218.04163638 42.25434733 221.70111946 37.1875 225.375 C30.54578959 230.1811353 23.88302476 234.95657432 17.1875 239.6875 C16.34533936 240.28804199 15.50317871 240.88858398 14.63549805 241.50732422 C13.44500854 242.34481201 13.44500854 242.34481201 12.23046875 243.19921875 C11.53332764 243.69252686 10.83618652 244.18583496 10.11791992 244.6940918 C5.82085417 247.34366006 5.82085417 247.34366006 3 248 C0.56348701 247.00708743 -1.31294634 246.02915117 -3.50390625 244.63671875 C-4.44475067 244.06906548 -4.44475067 244.06906548 -5.40460205 243.48994446 C-7.46808419 242.23936599 -9.51478921 240.9637088 -11.5625 239.6875 C-12.99789539 238.81143382 -14.43435167 237.93710365 -15.87182617 237.06445312 C-18.81983948 235.27080354 -21.76126839 233.46705947 -24.69726562 231.65380859 C-30.47801325 228.08392694 -36.28891732 224.5641537 -42.09860229 221.04165649 C-43.73346294 220.04803639 -45.36498875 219.04893546 -46.99633789 218.04956055 C-48.5546936 217.09690308 -48.5546936 217.09690308 -50.14453125 216.125 C-51.63508278 215.15290085 -51.63508278 215.15290085 -53.15574646 214.16116333 C-55.95310289 212.45290481 -58.63302844 211.42448962 -61.76049805 210.45915222 C-67.53459753 208.40487096 -72.31656531 206.04206637 -76 201 C-79.37993643 190.42583451 -78.26978905 178.53361844 -77.92648482 167.5760119 C-77.8071243 163.12162722 -77.79650563 158.66696442 -77.77400208 154.21122742 C-77.71510854 145.78741027 -77.55944754 137.36831792 -77.36836177 128.94657534 C-77.15545748 119.35346102 -77.05139701 109.76011216 -76.95614851 100.16522086 C-76.75792234 80.4408502 -76.4240738 60.72072345 -76 41 C-72.95267167 39.39584831 -69.9052951 37.79178828 -66.85791016 36.18774414 C-65.99968155 35.73596046 -65.14145294 35.28417679 -64.25721741 34.8187027 C-58.30072818 31.68347782 -52.34210719 28.55247982 -46.375 25.4375 C-45.46476074 24.96135254 -44.55452148 24.48520508 -43.61669922 23.99462891 C-38.26550372 21.20182285 -32.90200675 18.43458337 -27.52389526 15.69404602 C-24.47861504 14.14222077 -21.43533003 12.58649952 -18.39190674 11.03103638 C-16.88386117 10.26199039 -15.37470748 9.49511339 -13.86444092 8.73043823 C-11.74288659 7.65618865 -9.62505876 6.57489705 -7.5078125 5.4921875 C-6.54231476 5.00702919 -6.54231476 5.00702919 -5.55731201 4.5120697 C-2.17167944 2.90804471 -2.17167944 2.90804471 0 0 Z " fill="#000000" transform="translate(308,230)"/>
<path d="M0 0 C-1.27157223 3.40031705 -2.73112409 6.37181009 -4.6953125 9.421875 C-5.23784668 10.26919189 -5.78038086 11.11650879 -6.33935547 11.98950195 C-6.92861816 12.90046631 -7.51788086 13.81143066 -8.125 14.75 C-8.74391113 15.71446045 -9.36282227 16.6789209 -10.00048828 17.67260742 C-11.32221299 19.73187369 -12.64566879 21.79002972 -13.97070312 23.84716797 C-16.61914728 27.96194273 -19.25456431 32.08498136 -21.89013672 36.20800781 C-23.90183351 39.35446986 -25.91546058 42.49968836 -27.9296875 45.64453125 C-31.95459445 51.92874749 -35.97747855 58.21425662 -40 64.5 C-41.33332409 66.58333925 -42.66665743 68.66667258 -44 70.75 C-44.66 71.78125 -45.32 72.8125 -46 73.875 C-73 116.0625 -73 116.0625 -100 158.25 C-100.66064453 159.28229736 -101.32128906 160.31459473 -102.00195312 161.37817383 C-103.3286281 163.45102243 -104.65544983 165.52377711 -105.98242188 167.59643555 C-109.059119 172.40245125 -112.13452054 177.20927478 -115.2043457 182.01968384 C-116.27648127 183.69955936 -117.3491769 185.37907738 -118.421875 187.05859375 C-119.75617219 189.14782224 -121.08958264 191.23761747 -122.421875 193.328125 C-123.34226563 194.76865234 -123.34226563 194.76865234 -124.28125 196.23828125 C-124.88130859 197.20620605 -125.48136719 198.17413086 -126.09960938 199.17138672 C-128 202 -128 202 -130.22851562 204.47314453 C-138.92939483 214.77995525 -136.87131736 227.49735045 -136.5 240.25 C-136.4598161 242.65228432 -136.42332403 245.05463339 -136.390625 247.45703125 C-136.30303765 253.30611447 -136.16965272 259.15275173 -136 265 C-139.85515715 263.56973318 -143.27474892 261.77462489 -146.8125 259.68359375 C-147.64895302 259.19129021 -147.64895302 259.19129021 -148.50230408 258.68904114 C-150.33678048 257.60839822 -152.16835821 256.52293929 -154 255.4375 C-155.2934864 254.67444051 -156.58719137 253.91175141 -157.88110352 253.14941406 C-160.57407293 251.56243801 -163.26609026 249.97386386 -165.95751953 248.38427734 C-169.83025756 246.09839015 -173.70883757 243.82259672 -177.58984375 241.55078125 C-178.20115143 241.19294052 -178.81245911 240.83509979 -179.44229126 240.46641541 C-180.66536746 239.75053982 -181.88846101 239.03469387 -183.11157227 238.31887817 C-192.94565493 232.56211348 -202.76804045 226.78588544 -212.57104492 220.97631836 C-217.9471295 217.79335316 -223.33634429 214.63381829 -228.734375 211.48828125 C-230.07555038 210.70577981 -231.41669624 209.92322776 -232.7578125 209.140625 C-234.74274246 207.98234634 -236.72824823 206.8251264 -238.71582031 205.67138672 C-240.55693076 204.60264227 -242.39583647 203.53019227 -244.234375 202.45703125 C-245.83104004 201.5285437 -245.83104004 201.5285437 -247.45996094 200.58129883 C-250 199 -250 199 -252 197 C-252.2784729 194.97518921 -252.2784729 194.97518921 -252.31884766 192.45849609 C-252.33871735 191.51767181 -252.35858704 190.57684753 -252.37905884 189.60751343 C-252.39061005 188.58976837 -252.40216125 187.57202332 -252.4140625 186.5234375 C-252.43342865 185.48305328 -252.4527948 184.44266907 -252.4727478 183.37075806 C-252.53265727 180.0389228 -252.57897452 176.70705321 -252.625 173.375 C-252.6631693 171.11977637 -252.7022204 168.86456748 -252.7421875 166.609375 C-252.83836799 161.07304725 -252.92338196 155.53663115 -253 150 C-252.16154541 149.50298584 -251.32309082 149.00597168 -250.45922852 148.49389648 C-229.45358311 136.04059721 -229.45358311 136.04059721 -208.5 123.5 C-198.33181576 117.38577051 -188.13372241 111.32310761 -177.92822266 105.27148438 C-169.10420627 100.03841909 -160.29203044 94.78671111 -151.5 89.5 C-141.33180373 83.38579048 -131.13372251 77.32310767 -120.92822266 71.27148438 C-112.10420627 66.03841909 -103.29203044 60.78671111 -94.5 55.5 C-85.01988013 49.79953577 -75.51471455 44.14242905 -66 38.5 C-56.30150733 32.7474254 -46.60827547 26.98660127 -36.9375 21.1875 C-35.94484131 20.59251709 -34.95218262 19.99753418 -33.92944336 19.38452148 C-28.74181826 16.26870389 -23.57016582 13.12867009 -18.4140625 9.9609375 C-16.81510132 8.98024292 -16.81510132 8.98024292 -15.18383789 7.97973633 C-13.14666575 6.72843302 -11.11187928 5.47323498 -9.07983398 4.21362305 C-7.72740601 3.38278198 -7.72740601 3.38278198 -6.34765625 2.53515625 C-5.15668335 1.79857788 -5.15668335 1.79857788 -3.94165039 1.04711914 C-2 0 -2 0 0 0 Z " fill="#FFFFFF" transform="translate(358,0)"/>
<path d="M0 0 C14.85 0 29.7 0 45 0 C45.33 43.56 45.66 87.12 46 132 C50.29 126.72 54.58 121.44 59 116 C63.75 110.1875 63.75 110.1875 65.8984375 107.56640625 C67.32316165 105.82654795 68.74494709 104.08427984 70.1640625 102.33984375 C74.22730003 97.35053265 78.33487254 92.40422987 82.5 87.5 C91.15349789 77.5563182 91.15349789 77.5563182 99 67 C101.29055786 66.63923645 101.29055786 66.63923645 104.18408203 66.65942383 C105.80553635 66.65976372 105.80553635 66.65976372 107.45974731 66.66011047 C108.63060883 66.67559433 109.80147034 66.69107819 111.0078125 66.70703125 C112.20356903 66.71127609 113.39932556 66.71552094 114.63131714 66.71989441 C118.46277071 66.73673098 122.29370453 66.77439316 126.125 66.8125 C128.71744034 66.82754036 131.30988889 66.84122989 133.90234375 66.85351562 C140.26840748 66.88665082 146.63416662 66.9368997 153 67 C152.0586885 68.10319957 151.1166507 69.20577943 150.17431641 70.30810547 C149.64979889 70.92217255 149.12528137 71.53623962 148.58486938 72.16891479 C146.24103802 74.87686977 143.81464352 77.50354023 141.375 80.125 C140.32027833 81.26298917 139.26559183 82.40101093 138.2109375 83.5390625 C137.67823242 84.11301758 137.14552734 84.68697266 136.59667969 85.27832031 C134.0594095 88.01422694 131.52996264 90.75733771 129 93.5 C128.0000406 94.58337081 127.00004052 95.66670407 126 96.75 C125.505 97.28625 125.01 97.8225 124.5 98.375 C120 103.25 120 103.25 118.49731445 104.87719727 C117.50531782 105.95233204 116.51425691 107.02833099 115.52416992 108.10522461 C112.90904645 110.94707545 110.27563106 113.76869561 107.61328125 116.56640625 C107.06091797 117.15164063 106.50855469 117.736875 105.93945312 118.33984375 C104.88026045 119.46134187 103.81541512 120.57753689 102.74414062 121.6875 C99.30333015 125.32904521 99.30333015 125.32904521 98 130 C98.82699665 132.10446701 98.82699665 132.10446701 100.25390625 134.17578125 C100.77122314 134.99135498 101.28854004 135.80692871 101.8215332 136.6472168 C102.39605225 137.52676025 102.97057129 138.40630371 103.5625 139.3125 C104.77712015 141.2206681 105.9906248 143.12954662 107.203125 145.0390625 C108.14961914 146.51874512 108.14961914 146.51874512 109.11523438 148.02832031 C112.08253496 152.70681548 114.94591409 157.44687687 117.8125 162.1875 C122.84467551 170.47715777 127.91211492 178.74442901 133 187 C138.28185257 195.57659419 143.55972681 204.15555721 148.8125 212.75 C149.39322266 213.69617188 149.97394531 214.64234375 150.57226562 215.6171875 C151.11173828 216.50148438 151.65121094 217.38578125 152.20703125 218.296875 C152.6760083 219.06354492 153.14498535 219.83021484 153.62817383 220.62011719 C155.20649811 223.35823875 156.61008366 226.16230747 158 229 C150.68643615 229.20289416 143.37359764 229.34295855 136.05786133 229.43945312 C133.56962974 229.47967745 131.08158714 229.53426611 128.59399414 229.60351562 C125.0166161 229.70060671 121.44173656 229.74593841 117.86328125 229.78125 C116.19583611 229.84318542 116.19583611 229.84318542 114.4947052 229.90637207 C106.96732138 229.91074259 106.96732138 229.91074259 104.2795105 227.38014221 C102.96389651 225.30809726 101.96748087 223.25324535 101 221 C100.39607422 219.97253662 99.79214844 218.94507324 99.16992188 217.88647461 C98.60853516 216.90171143 98.04714844 215.91694824 97.46875 214.90234375 C96.82921387 213.7819873 96.18967773 212.66163086 95.53076172 211.50732422 C94.85380086 210.31740573 94.17688119 209.12746381 93.5 207.9375 C92.7932404 206.69801733 92.08637038 205.45859762 91.37939453 204.21923828 C86.33716355 195.37439456 81.3211527 186.51469105 76.33789062 177.63647461 C74.90191187 175.0851332 73.45433478 172.54091801 72 170 C71.4627832 169.05415039 70.92556641 168.10830078 70.37207031 167.13378906 C69.83936523 166.2156543 69.30666016 165.29751953 68.7578125 164.3515625 C68.27715332 163.51705566 67.79649414 162.68254883 67.30126953 161.82275391 C66.87185059 161.22124512 66.44243164 160.61973633 66 160 C60.9147823 160 55.91608538 166.43854783 52.45596313 169.74349976 C44.41431281 178.34524981 43.8476148 186.31428185 44.0625 197.7109375 C44.16467254 200.01571427 44.26886296 202.3204024 44.375 204.625 C44.4171766 206.99986678 44.45108696 209.37489535 44.4765625 211.75 C44.54085929 217.51259939 44.77307012 223.23255562 45 229 C30.15 229 15.3 229 0 229 C0 153.43 0 77.86 0 0 Z " fill="#FFFFFF" transform="translate(1255,154)"/>
<path d="M0 0 C0.98779449 0.00273422 0.98779449 0.00273422 1.99554443 0.00552368 C22.14310561 0.09935125 40.48464878 3.53668187 55.9375 17.4375 C69.23904062 31.54145375 68.69876586 51.3300207 68.7265625 69.37890625 C68.74091635 71.50578269 68.75668099 73.63265003 68.77377319 75.75950623 C68.81537963 81.33259252 68.84051833 86.90562243 68.86126709 92.4788208 C68.89721884 101.36976822 68.95901786 110.2605747 69.01975632 119.15138054 C69.03846119 122.21782813 69.05046689 125.28423871 69.06118774 128.35072327 C69.07142855 130.28532985 69.08178869 132.2199358 69.09228516 134.15454102 C69.09332748 134.97341797 69.09436981 135.79229492 69.09544373 136.63598633 C69.16036765 146.55579856 69.77685531 156.3764615 70.25 166.3125 C55.73 166.3125 41.21 166.3125 26.25 166.3125 C25.26 162.3525 24.27 158.3925 23.25 154.3125 C22.59 155.01375 21.93 155.715 21.25 156.4375 C9.45104553 168.03925745 -3.76734625 170.48616041 -19.875 170.5625 C-20.93976562 170.583125 -22.00453125 170.60375 -23.1015625 170.625 C-37.79498803 170.69632731 -52.13185255 166.48938193 -63.0078125 156.22265625 C-74.51559794 143.6053758 -77.65345175 128.92374178 -76.90234375 112.31298828 C-76.55261391 107.72054231 -75.40912079 103.58844545 -73.75 99.3125 C-73.27433594 98.05566406 -73.27433594 98.05566406 -72.7890625 96.7734375 C-67.55375075 84.78048931 -56.85912656 76.31321106 -44.86474609 71.56640625 C-28.85044795 65.71571228 -13.30151721 65.03244875 3.5625 65.1875 C5.47851092 65.1975544 7.39452698 65.20667588 9.31054688 65.21484375 C13.95716034 65.23665197 18.60352199 65.27104491 23.25 65.3125 C23.12890935 62.57874689 22.9972137 59.84619846 22.859375 57.11328125 C22.80982666 55.95753601 22.80982666 55.95753601 22.75927734 54.77844238 C22.3873157 47.69788674 21.0491442 43.18729675 15.9375 37.9375 C7.98465568 33.12880343 -2.38652551 33.07649889 -11.32421875 34.8125 C-15.86090315 36.33336944 -18.90288299 38.51634398 -21.75 42.3125 C-23.07 45.9425 -24.39 49.5725 -25.75 53.3125 C-39.94 53.3125 -54.13 53.3125 -68.75 53.3125 C-68.75 38.78792206 -64.39034357 27.34915758 -54.5625 16.5625 C-39.63201524 2.66515146 -19.53237828 -0.08570101 0 0 Z M-25.75 101.3125 C-30.73582804 107.57674549 -31.57603687 113.47662245 -30.75 121.3125 C-29.1256107 126.98903435 -26.91319292 131.1905694 -21.75 134.3125 C-20.80125 134.89 -19.8525 135.4675 -18.875 136.0625 C-10.42728285 139.40100831 0.59618889 138.24151618 8.80859375 134.765625 C15.54370952 130.75688409 19.68624487 124.93122697 21.77734375 117.453125 C22.01130859 116.39351562 22.01130859 116.39351562 22.25 115.3125 C22.435625 114.58160156 22.62125 113.85070312 22.8125 113.09765625 C23.42143938 109.22110468 23.35518037 105.41674487 23.3125 101.5 C23.30798828 100.71173828 23.30347656 99.92347656 23.29882812 99.11132812 C23.28711312 97.17835239 23.26917998 95.24541607 23.25 93.3125 C19.3397725 93.23718448 15.42983768 93.18336149 11.51904297 93.14770508 C9.55030432 93.1255657 7.58176638 93.08740648 5.61328125 93.04882812 C-5.46051509 92.96450988 -16.98450695 93.79318548 -25.75 101.3125 Z " fill="#FFFFFF" transform="translate(979.75,216.6875)"/>
<path d="M0 0 C58.74 0 117.48 0 178 0 C178 12.87 178 25.74 178 39 C156.55 39 135.1 39 113 39 C113 97.41 113 155.82 113 216 C97.16 216 81.32 216 65 216 C65 157.59 65 99.18 65 39 C43.55 39 22.1 39 0 39 C0 26.13 0 13.26 0 0 Z " fill="#FFFFFF" transform="translate(612,167)"/>
<path d="M0 0 C12.05376741 10.08180762 18.80624418 23.54250055 21.48754883 38.94824219 C21.48754883 40.26824219 21.48754883 41.58824219 21.48754883 42.94824219 C6.63754883 42.94824219 -8.21245117 42.94824219 -23.51245117 42.94824219 C-24.83245117 39.64824219 -26.15245117 36.34824219 -27.51245117 32.94824219 C-31.76383094 26.67239587 -36.08350253 23.66026327 -43.51245117 21.94824219 C-53.32009351 20.91214072 -60.91646506 21.87654496 -68.69995117 28.01074219 C-78.67154473 37.35666713 -81.17633379 52.38990425 -81.63745117 65.50292969 C-81.97190665 81.66959738 -80.70110804 99.25587062 -69.51245117 111.94824219 C-61.4619264 118.33366791 -53.46371397 118.65320844 -43.51245117 117.94824219 C-36.30604626 116.33655334 -31.56615181 111.98440956 -27.51245117 105.94824219 C-26.19245117 103.30824219 -24.87245117 100.66824219 -23.51245117 97.94824219 C-8.66245117 97.94824219 6.18754883 97.94824219 21.48754883 97.94824219 C17.59319109 117.4200309 8.95078611 133.38099386 -7.76245117 144.76074219 C-21.2453677 152.83525717 -35.8439304 155.33949987 -51.32495117 155.26074219 C-52.46988037 155.25582764 -53.61480957 155.25091309 -54.79443359 155.24584961 C-63.08772806 155.13096772 -70.57097421 154.49279811 -78.51245117 151.94824219 C-79.61331055 151.60792969 -80.71416992 151.26761719 -81.84838867 150.91699219 C-91.86729722 147.46058551 -100.40360401 141.84696125 -107.51245117 133.94824219 C-108.02936523 133.43519531 -108.5462793 132.92214844 -109.07885742 132.39355469 C-126.7238594 113.99854143 -129.15992023 88.33315601 -128.82495117 64.12011719 C-128.54951963 55.34762243 -127.24337072 47.2781703 -124.51245117 38.94824219 C-124.29814453 38.28695312 -124.08383789 37.62566406 -123.86303711 36.94433594 C-117.08388246 16.774624 -103.6639101 0.99091955 -84.64916992 -8.47753906 C-58.11094949 -20.39337579 -23.09267117 -18.35844978 0 0 Z " fill="#FFFFFF" transform="translate(1206.512451171875,232.0517578125)"/>
<path d="M0 0 C15.18 0 30.36 0 46 0 C46 14.52 46 29.04 46 44 C56.23 44 66.46 44 77 44 C77 55.22 77 66.44 77 78 C66.77 78 56.54 78 46 78 C46.08554579 89.23988236 46.17931913 100.47961374 46.28752708 111.71930122 C46.33744596 116.93849155 46.38377649 122.15766207 46.421875 127.37695312 C46.45878334 132.41503972 46.50515856 137.45295882 46.55806351 142.49090195 C46.57657793 144.41176283 46.59169677 146.33265958 46.60334396 148.25357437 C46.62025687 150.94673009 46.64930417 153.63950468 46.68115234 156.33251953 C46.68331253 157.12446213 46.68547272 157.91640472 46.68769836 158.73234558 C46.75453615 163.16453194 47.15575903 166.88355926 49 171 C53.76521801 173.50723778 59.09081063 173.42202094 64.375 173.625 C67.22125 173.74875 70.0675 173.8725 73 174 C73 184.56 73 195.12 73 206 C55.56662411 210.35834397 32.08446361 212.4594184 15.73828125 203.21875 C6.95611136 197.06136347 3.10174889 189.11131038 0.62631226 178.90222168 C-0.76675936 170.22272639 -0.36021082 161.37603843 -0.29296875 152.609375 C-0.28736422 150.4517649 -0.28309818 148.29415095 -0.28010559 146.13653564 C-0.26872426 140.49441744 -0.23931566 134.85253584 -0.20599365 129.21051025 C-0.17514715 123.4385498 -0.16156926 117.66655061 -0.14648438 111.89453125 C-0.11443883 100.5962342 -0.06172655 89.29817391 0 78 C-8.25 78 -16.5 78 -25 78 C-25 66.78 -25 55.56 -25 44 C-16.75 44 -8.5 44 0 44 C0 29.48 0 14.96 0 0 Z " fill="#FFFFFF" transform="translate(1599,177)"/>
<path d="M0 0 C3.20596321 2.63410801 4.46632146 5.97910268 5.9765625 9.7265625 C6.25868591 10.40904556 6.54080933 11.09152863 6.83148193 11.79469299 C7.76962745 14.06866094 8.69718554 16.3467995 9.625 18.625 C10.29042128 20.24290599 10.95661561 21.86049424 11.62353516 23.4777832 C13.03440495 26.90157662 14.4414086 30.3269226 15.84570312 33.75341797 C17.94145816 38.86315291 20.05378068 43.96589667 22.171875 49.06640625 C22.5167395 49.8968898 22.861604 50.72737335 23.21691895 51.58302307 C23.9170257 53.26877802 24.61718045 54.95451303 25.31738281 56.64022827 C27.10435801 60.94415927 28.88807959 65.24943786 30.671875 69.5546875 C31.02842163 70.41513168 31.38496826 71.27557587 31.75231934 72.16209412 C33.1960234 75.64616457 34.63963431 79.13027362 36.08325195 82.61437988 C38.59678426 88.68057899 41.11069285 94.746622 43.625 100.8125 C43.97766937 101.6634021 44.33033875 102.5143042 44.69369507 103.39099121 C49.05615508 113.9155057 53.42851784 124.43580875 57.81591797 134.94995117 C59.04997141 137.90763663 60.28207401 140.86612133 61.51220703 143.82543945 C62.11618683 145.27816757 62.72019069 146.73088569 63.32421875 148.18359375 C63.62177063 148.89931046 63.91932251 149.61502716 64.22589111 150.35243225 C66.15439037 154.98530736 68.10046531 159.61046938 70.05610657 164.23194885 C71.39195601 167.39370093 72.71882438 170.55917492 74.0440979 173.72537231 C74.67589963 175.22878329 75.31171782 176.73051336 75.95175171 178.23043823 C76.83238247 180.29527004 77.6989368 182.36548421 78.5625 184.4375 C79.05878906 185.61183594 79.55507813 186.78617188 80.06640625 187.99609375 C80.99918851 190.99738898 81.36139718 192.20555316 80 195 C78.59570312 196.36523438 78.59570312 196.36523438 76.78125 197.59375 C76.10521729 198.06031006 75.42918457 198.52687012 74.73266602 199.00756836 C73.99588623 199.5000708 73.25910645 199.99257324 72.5 200.5 C70.93602343 201.5739647 69.37222618 202.64819057 67.80859375 203.72265625 C67.00663574 204.26809082 66.20467773 204.81352539 65.37841797 205.37548828 C61.74532294 207.856972 58.15374701 210.39600211 54.5625 212.9375 C53.51316284 213.67734131 53.51316284 213.67734131 52.44262695 214.43212891 C47.3296446 218.04163638 42.25434733 221.70111946 37.1875 225.375 C30.54578959 230.1811353 23.88302476 234.95657432 17.1875 239.6875 C16.34533936 240.28804199 15.50317871 240.88858398 14.63549805 241.50732422 C13.44500854 242.34481201 13.44500854 242.34481201 12.23046875 243.19921875 C11.53332764 243.69252686 10.83618652 244.18583496 10.11791992 244.6940918 C5.82085417 247.34366006 5.82085417 247.34366006 3 248 C0.56348701 247.00708743 -1.31294634 246.02915117 -3.50390625 244.63671875 C-4.44475067 244.06906548 -4.44475067 244.06906548 -5.40460205 243.48994446 C-7.46808419 242.23936599 -9.51478921 240.9637088 -11.5625 239.6875 C-12.99789539 238.81143382 -14.43435167 237.93710365 -15.87182617 237.06445312 C-18.81983948 235.27080354 -21.76126839 233.46705947 -24.69726562 231.65380859 C-30.47801325 228.08392694 -36.28891732 224.5641537 -42.09860229 221.04165649 C-43.73346294 220.04803639 -45.36498875 219.04893546 -46.99633789 218.04956055 C-48.5546936 217.09690308 -48.5546936 217.09690308 -50.14453125 216.125 C-51.63508278 215.15290085 -51.63508278 215.15290085 -53.15574646 214.16116333 C-55.95310289 212.45290481 -58.63302844 211.42448962 -61.76049805 210.45915222 C-67.53459753 208.40487096 -72.31656531 206.04206637 -76 201 C-79.37993643 190.42583451 -78.26978905 178.53361844 -77.92648482 167.5760119 C-77.8071243 163.12162722 -77.79650563 158.66696442 -77.77400208 154.21122742 C-77.71510854 145.78741027 -77.55944754 137.36831792 -77.36836177 128.94657534 C-77.15545748 119.35346102 -77.05139701 109.76011216 -76.95614851 100.16522086 C-76.75792234 80.4408502 -76.4240738 60.72072345 -76 41 C-72.95267167 39.39584831 -69.9052951 37.79178828 -66.85791016 36.18774414 C-65.99968155 35.73596046 -65.14145294 35.28417679 -64.25721741 34.8187027 C-58.30072818 31.68347782 -52.34210719 28.55247982 -46.375 25.4375 C-45.46476074 24.96135254 -44.55452148 24.48520508 -43.61669922 23.99462891 C-38.26550372 21.20182285 -32.90200675 18.43458337 -27.52389526 15.69404602 C-24.47861504 14.14222077 -21.43533003 12.58649952 -18.39190674 11.03103638 C-16.88386117 10.26199039 -15.37470748 9.49511339 -13.86444092 8.73043823 C-11.74288659 7.65618865 -9.62505876 6.57489705 -7.5078125 5.4921875 C-6.54231476 5.00702919 -6.54231476 5.00702919 -5.55731201 4.5120697 C-2.17167944 2.90804471 -2.17167944 2.90804471 0 0 Z M-10.625 11 C-16.06883619 13.9531235 -21.56013537 16.79205497 -27.10693359 19.546875 C-36.61256862 24.2843368 -46.05657915 29.14004339 -55.5 34 C-57.20959358 34.87898762 -58.91922879 35.75789428 -60.62890625 36.63671875 C-64.75308245 38.75688378 -68.8767015 40.87812855 -73 43 C-73.65628925 62.91375969 -74.14885689 82.82530682 -74.45074081 102.74766445 C-74.5946956 112.00026334 -74.79057664 121.24611905 -75.11230469 130.49438477 C-75.39286288 138.56309859 -75.57234227 146.62693214 -75.63447785 154.70038754 C-75.67078425 158.97215343 -75.75484349 163.22997286 -75.96044159 167.49722099 C-77.33673542 184.33214462 -77.33673542 184.33214462 -71.73852706 199.59537673 C-65.19746834 206.13811524 -56.64612682 209.98597125 -48.24981976 213.5723238 C-44.15412727 215.3715998 -40.47126708 217.58293485 -36.73828125 220.02734375 C-21.81562358 229.1118085 -21.81562358 229.1118085 -6.8125 238.0625 C-6.11745361 238.4742749 -5.42240723 238.8860498 -4.70629883 239.31030273 C-2.02114174 241.18040577 -2.02114174 241.18040577 1 242 C1.1285227 197.95576723 0.9997156 153.91741224 0.5625 109.875 C0.55154549 108.77150963 0.54059097 107.66801926 0.5293045 106.53108978 C0.19702536 73.35062174 -0.22036352 40.17340706 -1 7 C-4.5451661 7 -7.56401039 9.33285387 -10.625 11 Z " fill="#010101" transform="translate(308,230)"/>
<path d="M0 0 C0 14.52 0 29.04 0 44 C-5.94 44.33 -11.88 44.66 -18 45 C-28.46801109 47.50120619 -37.40953247 50.4048556 -43.375 59.8125 C-47.35569941 66.76126476 -49.41861092 74.30474356 -50.1484375 82.234375 C-50.22750336 83.06233582 -50.30656921 83.89029663 -50.38803101 84.74334717 C-51.60742312 99.36033913 -51.4662942 114.09204389 -51.60089111 128.74975586 C-51.64868453 133.70623605 -51.70988894 138.66256812 -51.76873779 143.618927 C-51.85586918 151.07922191 -51.92640217 158.53950425 -52 166 C-66.85 166 -81.7 166 -97 166 C-97.33 112.54 -97.66 59.08 -98 4 C-83.15 4 -68.3 4 -53 4 C-51.34920558 5.65079442 -51.77450553 7.63736179 -51.68359375 9.91015625 C-51.64169922 10.89951172 -51.59980469 11.88886719 -51.55664062 12.90820312 C-51.51732422 13.94912109 -51.47800781 14.99003906 -51.4375 16.0625 C-51.39431641 17.10728516 -51.35113281 18.15207031 -51.30664062 19.22851562 C-51.20018775 21.81886884 -51.0981724 24.40932186 -51 27 C-50.5555957 26.31454102 -50.11119141 25.62908203 -49.65332031 24.92285156 C-40.90590148 11.60035548 -29.66434141 4.37679208 -14.27734375 0.4453125 C-9.5592689 -0.19576084 -4.76142891 0 0 0 Z " fill="#FFFFFF" transform="translate(892,217)"/>
<path d="M0 0 C14.85 0 29.7 0 45 0 C45 53.46 45 106.92 45 162 C30.15 162 15.3 162 0 162 C0 108.54 0 55.08 0 0 Z " fill="#FFFFFF" transform="translate(1505,221)"/>
<path d="M0 0 C3.20596321 2.63410801 4.46632146 5.97910268 5.9765625 9.7265625 C6.25868591 10.40904556 6.54080933 11.09152863 6.83148193 11.79469299 C7.76962745 14.06866094 8.69718554 16.3467995 9.625 18.625 C10.29042128 20.24290599 10.95661561 21.86049424 11.62353516 23.4777832 C13.03440495 26.90157662 14.4414086 30.3269226 15.84570312 33.75341797 C17.94145816 38.86315291 20.05378068 43.96589667 22.171875 49.06640625 C22.5167395 49.8968898 22.861604 50.72737335 23.21691895 51.58302307 C23.9170257 53.26877802 24.61718045 54.95451303 25.31738281 56.64022827 C27.10435801 60.94415927 28.88807959 65.24943786 30.671875 69.5546875 C31.02842163 70.41513168 31.38496826 71.27557587 31.75231934 72.16209412 C33.1960234 75.64616457 34.63963431 79.13027362 36.08325195 82.61437988 C38.59678426 88.68057899 41.11069285 94.746622 43.625 100.8125 C43.97766937 101.6634021 44.33033875 102.5143042 44.69369507 103.39099121 C49.05615508 113.9155057 53.42851784 124.43580875 57.81591797 134.94995117 C59.04997141 137.90763663 60.28207401 140.86612133 61.51220703 143.82543945 C62.11618683 145.27816757 62.72019069 146.73088569 63.32421875 148.18359375 C63.62177063 148.89931046 63.91932251 149.61502716 64.22589111 150.35243225 C66.15439037 154.98530736 68.10046531 159.61046938 70.05610657 164.23194885 C71.39195601 167.39370093 72.71882438 170.55917492 74.0440979 173.72537231 C74.67589963 175.22878329 75.31171782 176.73051336 75.95175171 178.23043823 C76.83238247 180.29527004 77.6989368 182.36548421 78.5625 184.4375 C79.05878906 185.61183594 79.55507813 186.78617188 80.06640625 187.99609375 C80.99918851 190.99738898 81.36139718 192.20555316 80 195 C78.59570312 196.36523438 78.59570312 196.36523438 76.78125 197.59375 C76.10521729 198.06031006 75.42918457 198.52687012 74.73266602 199.00756836 C73.99588623 199.5000708 73.25910645 199.99257324 72.5 200.5 C70.93602343 201.5739647 69.37222618 202.64819057 67.80859375 203.72265625 C67.00663574 204.26809082 66.20467773 204.81352539 65.37841797 205.37548828 C61.74532294 207.856972 58.15374701 210.39600211 54.5625 212.9375 C53.51316284 213.67734131 53.51316284 213.67734131 52.44262695 214.43212891 C47.3296446 218.04163638 42.25434733 221.70111946 37.1875 225.375 C30.54578959 230.1811353 23.88302476 234.95657432 17.1875 239.6875 C16.34533936 240.28804199 15.50317871 240.88858398 14.63549805 241.50732422 C13.44500854 242.34481201 13.44500854 242.34481201 12.23046875 243.19921875 C11.53332764 243.69252686 10.83618652 244.18583496 10.11791992 244.6940918 C5.82085417 247.34366006 5.82085417 247.34366006 3 248 C0.56348701 247.00708743 -1.31294634 246.02915117 -3.50390625 244.63671875 C-4.44475067 244.06906548 -4.44475067 244.06906548 -5.40460205 243.48994446 C-7.46808419 242.23936599 -9.51478921 240.9637088 -11.5625 239.6875 C-12.99789539 238.81143382 -14.43435167 237.93710365 -15.87182617 237.06445312 C-18.81983948 235.27080354 -21.76126839 233.46705947 -24.69726562 231.65380859 C-30.47801325 228.08392694 -36.28891732 224.5641537 -42.09860229 221.04165649 C-43.73346294 220.04803639 -45.36498875 219.04893546 -46.99633789 218.04956055 C-48.5546936 217.09690308 -48.5546936 217.09690308 -50.14453125 216.125 C-51.63508278 215.15290085 -51.63508278 215.15290085 -53.15574646 214.16116333 C-55.95310289 212.45290481 -58.63302844 211.42448962 -61.76049805 210.45915222 C-67.53459753 208.40487096 -72.31656531 206.04206637 -76 201 C-79.37993643 190.42583451 -78.26978905 178.53361844 -77.92648482 167.5760119 C-77.8071243 163.12162722 -77.79650563 158.66696442 -77.77400208 154.21122742 C-77.71510854 145.78741027 -77.55944754 137.36831792 -77.36836177 128.94657534 C-77.15545748 119.35346102 -77.05139701 109.76011216 -76.95614851 100.16522086 C-76.75792234 80.4408502 -76.4240738 60.72072345 -76 41 C-72.95267167 39.39584831 -69.9052951 37.79178828 -66.85791016 36.18774414 C-65.99968155 35.73596046 -65.14145294 35.28417679 -64.25721741 34.8187027 C-58.30072818 31.68347782 -52.34210719 28.55247982 -46.375 25.4375 C-45.46476074 24.96135254 -44.55452148 24.48520508 -43.61669922 23.99462891 C-38.26550372 21.20182285 -32.90200675 18.43458337 -27.52389526 15.69404602 C-24.47861504 14.14222077 -21.43533003 12.58649952 -18.39190674 11.03103638 C-16.88386117 10.26199039 -15.37470748 9.49511339 -13.86444092 8.73043823 C-11.74288659 7.65618865 -9.62505876 6.57489705 -7.5078125 5.4921875 C-6.54231476 5.00702919 -6.54231476 5.00702919 -5.55731201 4.5120697 C-2.17167944 2.90804471 -2.17167944 2.90804471 0 0 Z M-10.625 11 C-16.06883619 13.9531235 -21.56013537 16.79205497 -27.10693359 19.546875 C-36.61256862 24.2843368 -46.05657915 29.14004339 -55.5 34 C-57.20959358 34.87898762 -58.91922879 35.75789428 -60.62890625 36.63671875 C-64.75308245 38.75688378 -68.8767015 40.87812855 -73 43 C-73.65628925 62.91375969 -74.14885689 82.82530682 -74.45074081 102.74766445 C-74.5946956 112.00026334 -74.79057664 121.24611905 -75.11230469 130.49438477 C-75.39286288 138.56309859 -75.57234227 146.62693214 -75.63447785 154.70038754 C-75.67078425 158.97215343 -75.75484349 163.22997286 -75.96044159 167.49722099 C-77.33673542 184.33214462 -77.33673542 184.33214462 -71.73852706 199.59537673 C-65.19746834 206.13811524 -56.64612682 209.98597125 -48.24981976 213.5723238 C-44.15412727 215.3715998 -40.47126708 217.58293485 -36.73828125 220.02734375 C-21.81562358 229.1118085 -21.81562358 229.1118085 -6.8125 238.0625 C-6.11745361 238.4742749 -5.42240723 238.8860498 -4.70629883 239.31030273 C-2.02114174 241.18040577 -2.02114174 241.18040577 1 242 C1.1285227 197.95576723 0.9997156 153.91741224 0.5625 109.875 C0.55154549 108.77150963 0.54059097 107.66801926 0.5293045 106.53108978 C0.19702536 73.35062174 -0.22036352 40.17340706 -1 7 C-4.5451661 7 -7.56401039 9.33285387 -10.625 11 Z M4 17 C3.93895801 44.74041373 4.08153573 72.4730778 4.40385818 100.21156931 C4.46163075 105.22817513 4.51665605 110.24481123 4.57202148 115.26144409 C4.67640783 124.68425583 4.78312499 134.10703953 4.89076519 143.5298146 C5.01356249 154.28993422 5.133631 165.05008381 5.25351524 175.81023622 C5.49939219 197.87352447 5.74854991 219.9367746 6 242 C8.66591025 240.690461 11.09240014 239.32721162 13.51171875 237.6015625 C14.1780835 237.12855713 14.84444824 236.65555176 15.53100586 236.16821289 C16.24264893 235.65895264 16.95429199 235.14969238 17.6875 234.625 C19.22388134 233.53244381 20.76034185 232.43999893 22.296875 231.34765625 C23.07998047 230.78965332 23.86308594 230.23165039 24.66992188 229.65673828 C26.86400164 228.09669791 29.06325953 226.54440789 31.265625 224.99609375 C37.8221083 220.3863899 44.35650403 215.75149001 50.83862305 211.03759766 C59.41762721 204.79915469 68.12019949 198.80199355 77 193 C76.33070177 188.75777137 74.89159488 185.00551723 73.21875 181.078125 C72.93379669 180.39847183 72.64884338 179.71881866 72.35525513 179.01856995 C71.73474519 177.54005672 71.11211259 176.06243297 70.48760986 174.58560181 C69.47898573 172.20030329 68.47582512 169.81277282 67.47412109 167.42456055 C66.41077998 164.88950721 65.34711594 162.354595 64.28182983 159.82035828 C60.71996052 151.34579677 57.19725284 142.85519164 53.68060303 134.36178589 C52.61590074 131.79052525 51.55049407 129.21955759 50.48486328 126.64868164 C47.96162019 120.56121737 45.43918859 114.47341696 42.91674805 108.38562012 C40.40321574 102.31942101 37.88933279 96.25336736 35.375 90.1875 C35.02465698 89.34224762 34.67431396 88.49699524 34.31335449 87.62612915 C28.58736108 73.81279027 22.84342496 60.00698674 17.08349609 46.20776367 C13.02609821 36.48394066 9.00417139 26.74585902 5 17 C4.67 17 4.34 17 4 17 Z " fill="#F6F6F6" transform="translate(308,230)"/>
<path d="M0 0 C14.85 0 29.7 0 45 0 C45 13.53 45 27.06 45 41 C30.15 41 15.3 41 0 41 C0 27.47 0 13.94 0 0 Z " fill="#FFFFFF" transform="translate(1505,154)"/>
</svg>
